<svg width="51.480774" height="51.480835" viewBox="0 0 51.4808 51.4808" fill="none" xmlns="http://www.w3.org/2000/svg" xmlns:xlink="http://www.w3.org/1999/xlink">
	<desc>
			Created with Pixso.
	</desc>
	<defs/>
	<path id="Vector" d="M25.7404 51.4808C39.9564 51.4808 51.4808 39.9564 51.4808 25.7404C51.4808 11.5243 39.9564 0 25.7404 0C11.5244 0 0 11.5243 0 25.7404C0 39.9564 11.5244 51.4808 25.7404 51.4808Z" fill="#1B76FF" fill-opacity="1.000000" fill-rule="nonzero"/>
	<path id="Vector" d="M16.9762 20.6466L16.9762 38.8077L12.3304 38.8077C11.6309 38.8077 11.0638 38.2677 11.0638 37.6014L11.0638 21.8529C11.0638 21.1866 11.6309 20.6466 12.3304 20.6466L16.9762 20.6466Z" stroke="#FFFFFF" stroke-opacity="1.000000" stroke-width="1.608378" stroke-linejoin="round"/>
	<path id="Vector" d="M34.5094 38.8077L20.4418 38.8077C18.5305 38.8077 16.9763 37.3448 16.9763 35.5459L16.9763 20.6683C21.4375 20.2334 23.6681 18.676 23.6681 14.4883L23.6681 12.4814C23.6681 10.3661 25.4686 8.65137 27.6896 8.65137C28.536 8.65137 29.3608 8.90564 30.0466 9.37805C30.9918 10.0305 31.594 11.266 31.594 13.0452L31.594 18.8544C31.594 19.3485 32.4305 19.7538 33.267 19.7538L37.7545 19.7538C39.6449 19.7538 41.1782 21.1771 41.2202 22.9464C41.2482 24.1259 40.5096 27.777 39.0043 35.4076C38.7102 37.671 37.1979 38.8077 34.5094 38.8077Z" stroke="#FFFFFF" stroke-opacity="1.000000" stroke-width="1.608378" stroke-linejoin="round"/>
</svg>
