<svg width="51.757446" height="51.757568" viewBox="0 0 51.7574 51.7576" fill="none" xmlns="http://www.w3.org/2000/svg" xmlns:xlink="http://www.w3.org/1999/xlink">
	<desc>
			Created with Pixso.
	</desc>
	<defs/>
	<path id="Vector" d="M25.8787 51.7576C40.1711 51.7576 51.7574 40.1713 51.7574 25.8789C51.7574 11.5864 40.1711 0.00012207 25.8787 0.00012207C11.5863 0.00012207 0 11.5864 0 25.8789C0 40.1713 11.5863 51.7576 25.8787 51.7576Z" fill="#FF6D35" fill-opacity="1.000000" fill-rule="nonzero"/>
	<path id="Vector" d="M16.3282 37.5515C13.9936 37.5515 12.0835 35.6415 12.0835 33.3069L12.0835 18.4504C12.0835 16.116 13.9936 14.2058 16.3282 14.2058L35.4293 14.2058C37.7638 14.2058 39.674 16.116 39.674 18.4504L39.674 33.3069C39.674 35.6415 37.7638 37.5515 35.4293 37.5515L16.3282 37.5515Z" stroke="#FFFFFF" stroke-opacity="1.000000" stroke-width="2.000000" stroke-linejoin="round"/>
	<path id="Vector" d="M12.0835 19.5117L25.8787 28.0011L39.674 19.5117" stroke="#FFFFFF" stroke-opacity="1.000000" stroke-width="2.000000" stroke-linejoin="round" stroke-linecap="round"/>
</svg>
