<svg width="51.480835" height="51.480835" viewBox="0 0 51.4808 51.4808" fill="none" xmlns="http://www.w3.org/2000/svg" xmlns:xlink="http://www.w3.org/1999/xlink">
	<desc>
			Created with Pixso.
	</desc>
	<defs/>
	<path id="Vector" d="M25.7404 51.4808C39.9564 51.4808 51.4808 39.9564 51.4808 25.7404C51.4808 11.5243 39.9564 0 25.7404 0C11.5243 0 0 11.5243 0 25.7404C0 39.9564 11.5243 51.4808 25.7404 51.4808Z" fill="#FFCD1D" fill-opacity="1.000000" fill-rule="nonzero"/>
	<path id="Vector" d="M25.7404 9.52283L25.7404 41.9585" stroke="#FFFFFF" stroke-opacity="1.000000" stroke-width="2.412567" stroke-linejoin="round" stroke-linecap="round"/>
	<path id="Vector" d="M33.1121 15.42L22.0546 15.42C20.6859 15.42 19.3734 15.9636 18.4056 16.9314C17.4379 17.8992 16.8943 19.2117 16.8943 20.5802C16.8943 21.9487 17.4379 23.2612 18.4056 24.229C19.3734 25.1968 20.6859 25.7405 22.0546 25.7405L29.4261 25.7405C30.7948 25.7405 32.1073 26.2841 33.0751 27.2518C34.0428 28.2195 34.5864 29.532 34.5864 30.9006C34.5864 32.2693 34.0428 33.5818 33.0751 34.5494C32.1073 35.5172 30.7948 36.0608 29.4261 36.0608L16.8943 36.0608" stroke="#FFFFFF" stroke-opacity="1.000000" stroke-width="2.412567" stroke-linejoin="round" stroke-linecap="round"/>
</svg>
