<svg width="51.480835" height="51.480835" viewBox="0 0 51.4808 51.4808" fill="none" xmlns="http://www.w3.org/2000/svg" xmlns:xlink="http://www.w3.org/1999/xlink">
	<desc>
			Created with Pixso.
	</desc>
	<defs/>
	<path id="Vector" d="M25.7404 51.4808C39.9564 51.4808 51.4808 39.9564 51.4808 25.7404C51.4808 11.5243 39.9564 0 25.7404 0C11.5243 0 0 11.5243 0 25.7404C0 39.9564 11.5243 51.4808 25.7404 51.4808Z" fill="#5CC97B" fill-opacity="1.000000" fill-rule="nonzero"/>
	<path id="Vector" d="M28.4974 32.1133C26.6544 33.332 24.4247 34.0029 22.0488 33.9049C16.0397 33.6567 11.3693 28.5836 11.6174 22.5742C11.8656 16.5648 16.9385 11.8951 22.9476 12.1433C28.9558 12.3915 33.6272 17.4635 33.379 23.473C33.2916 25.5913 32.6045 27.5432 31.4882 29.1721L38.8248 36.2955C39.73 37.277 39.6976 38.7941 38.7676 39.734L38.7247 39.7733L38.6796 39.8125C37.6686 40.662 36.1541 40.5709 35.2498 39.5887L28.4974 32.1133ZM22.1526 31.3932C17.5304 31.2023 13.9376 27.2998 14.1285 22.6776C14.3193 18.0553 18.2217 14.4625 22.844 14.6534C27.4662 14.8444 31.0591 18.7467 30.8682 23.3689C30.6772 27.9912 26.7748 31.584 22.1526 31.3932Z" fill="#FFFFFF" fill-opacity="1.000000" fill-rule="evenodd"/>
</svg>
