<svg width="158.213989" height="29.207642" viewBox="0 0 158.214 29.2076" fill="none" xmlns="http://www.w3.org/2000/svg" xmlns:xlink="http://www.w3.org/1999/xlink">
	<desc>
			Created with Pixso.
	</desc>
	<defs/>
	<path id="Vector" d="M3.89709 3.25232C6.05127 1.29053 8.97636 0.145386 11.941 0.00292969C12.9557 0.00292969 13.9733 0.00866699 14.988 0C14.9362 1.03772 14.988 2.07812 14.9575 3.11572C14.8143 5.43518 13.9154 7.70227 12.4011 9.52161C10.4328 11.969 7.42241 13.6111 4.22617 14.0355C2.83066 14.2505 1.41379 14.1139 0.00920105 14.1517C0.0335693 13.0094 -0.0426178 11.8644 0.0518341 10.725C0.326096 7.8999 1.72464 5.19397 3.89709 3.25232Z" fill="#81818B" fill-opacity="1.000000" fill-rule="nonzero"/>
	<path id="Vector" d="M15.9275 0C17.0153 0.0115967 18.1031 -0.0057373 19.1939 0.00585938C21.9087 0.188843 24.587 1.18298 26.6313 2.90662C28.886 4.7522 30.4311 7.39124 30.8269 10.2106C31.0007 11.5184 30.891 12.8408 30.9582 14.1547C30.0074 14.1517 29.0598 14.1488 28.109 14.1547C25.7722 14.0936 23.4748 13.3728 21.5187 12.158C20.6168 11.5417 19.6905 10.9169 19.0141 10.0623C17.5302 8.4812 16.5217 6.49609 16.1408 4.40344C15.8544 2.95007 15.9702 1.46777 15.9275 0Z" fill="#81818B" fill-opacity="1.000000" fill-rule="nonzero"/>
	<path id="Vector" d="M0.011261 14.9858C0.977158 15.0381 1.94609 14.9423 2.90889 15.0439C7.0314 15.1282 11.0321 17.3372 13.1679 20.7C14.3929 22.5834 15.0509 24.8157 14.9657 27.0331C14.9626 27.7603 14.9748 28.4836 14.9534 29.2076C13.4239 29.1636 11.8791 29.2827 10.3647 29.0009C7.00095 28.4606 3.90834 26.5507 2.04659 23.8245C0.635849 21.8423 -0.0679626 19.4211 0.00517273 17.0291C0.00517273 16.3461 0.00517273 15.6659 0.011261 14.9858Z" fill="#81818B" fill-opacity="1.000000" fill-rule="nonzero"/>
	<path id="Vector" d="M25.8099 15.2938C27.4674 14.942 29.1763 15.0001 30.8616 15.0001L30.9351 15.0699C30.8983 16.5901 31.0233 18.1276 30.7036 19.6302C30.03 23.0018 27.69 26.0127 24.5424 27.6665C22.5832 28.7074 20.3346 29.2188 18.0951 29.1956C17.379 29.1987 16.66 29.1841 15.944 29.204C15.944 27.9456 15.8891 26.6816 16.0384 25.4285C16.3857 22.3972 18.1042 19.5751 20.5753 17.6683C22.1048 16.5175 23.9025 15.6832 25.8099 15.2938Z" fill="#81818B" fill-opacity="1.000000" fill-rule="nonzero"/>
	<path id="Vector" d="M43.4432 23.5778C43.4432 24.0895 43.2574 24.5223 42.8867 24.8767C42.5355 25.2114 42.0919 25.3787 41.5558 25.3787C41.0398 25.3787 40.6066 25.2114 40.2559 24.8767C39.9052 24.5223 39.7299 24.0895 39.7299 23.5778L39.7299 5.33423C39.7299 4.82251 39.9052 4.39941 40.2559 4.06482C40.6271 3.71057 41.0812 3.53345 41.6178 3.53345C42.1538 3.53345 42.5869 3.71057 42.9171 4.06482C43.2679 4.39941 43.4432 4.82251 43.4432 5.33423L43.4432 23.5778Z" fill="#81818B" fill-opacity="1.000000" fill-rule="nonzero"/>
	<path id="Vector" d="M58.349 9.58521C58.885 9.58521 59.3286 9.76233 59.6799 10.1166C60.0301 10.451 60.2054 10.8743 60.2054 11.3859L60.2054 18.8842C60.2054 20.9702 59.5969 22.6233 58.38 23.8435C57.1625 25.0637 55.409 25.6736 53.1184 25.6736C50.8289 25.6736 49.0749 25.0637 47.8579 23.8435C46.6615 22.6233 46.063 20.9702 46.063 18.8842L46.063 11.3859C46.063 10.8743 46.2383 10.451 46.589 10.1166C46.9397 9.76233 47.3833 9.58521 47.9199 9.58521C48.4564 9.58521 48.8995 9.76233 49.2502 10.1166C49.6015 10.451 49.7768 10.8743 49.7768 11.3859L49.7768 18.8842C49.7768 20.0846 50.0556 20.98 50.6121 21.5704C51.1691 22.1412 52.0049 22.4265 53.1184 22.4265C54.254 22.4265 55.0993 22.1412 55.6568 21.5704C56.2133 20.98 56.4921 20.0846 56.4921 18.8842L56.4921 11.3859C56.4921 10.8743 56.6674 10.451 57.0181 10.1166C57.3688 9.76233 57.8125 9.58521 58.349 9.58521Z" fill="#81818B" fill-opacity="1.000000" fill-rule="nonzero"/>
	<path id="Vector" d="M71.3748 9.29004C73.0254 9.29004 74.2423 9.67371 75.0266 10.4413C75.8105 11.1892 76.3265 12.1633 76.5738 13.3638L76.0478 13.0981L76.2956 12.6259C76.5428 12.1731 76.9245 11.691 77.4406 11.1793C77.9561 10.6479 78.5751 10.2052 79.297 9.85095C80.0399 9.47693 80.8652 9.29004 81.7729 9.29004C83.2586 9.29004 84.3827 9.59509 85.146 10.2051C85.9304 10.8152 86.4664 11.632 86.7552 12.6554C87.0444 13.6591 87.1888 14.7808 87.1888 16.0206L87.1888 23.5779C87.1888 24.0896 87.0135 24.5223 86.6622 24.8767C86.3115 25.2114 85.8684 25.3788 85.3319 25.3788C84.7958 25.3788 84.3517 25.2114 84.001 24.8767C83.6503 24.5223 83.4749 24.0896 83.4749 23.5779L83.4749 16.0206C83.4749 15.3712 83.3925 14.7906 83.2277 14.2789C83.0623 13.7476 82.7631 13.3245 82.3299 13.0095C81.8968 12.6947 81.2778 12.5372 80.4735 12.5372C79.6892 12.5372 79.0187 12.6947 78.4617 13.0095C77.9042 13.3245 77.4815 13.7476 77.1928 14.2789C76.9245 14.7906 76.7901 15.3712 76.7901 16.0206L76.7901 23.5779C76.7901 24.0896 76.6148 24.5223 76.2646 24.8767C75.9139 25.2114 75.4698 25.3788 74.9337 25.3788C74.3972 25.3788 73.9536 25.2114 73.6034 24.8767C73.2522 24.5223 73.0768 24.0896 73.0768 23.5779L73.0768 16.0206C73.0768 15.3712 72.9944 14.7906 72.829 14.2789C72.6642 13.7476 72.3649 13.3245 71.9318 13.0095C71.4987 12.6947 70.8792 12.5372 70.0749 12.5372C69.291 12.5372 68.6206 12.6947 68.063 13.0095C67.5066 13.3245 67.0834 13.7476 66.7946 14.2789C66.5264 14.7906 66.3925 15.3712 66.3925 16.0206L66.3925 23.5779C66.3925 24.0896 66.2172 24.5223 65.8665 24.8767C65.5152 25.2114 65.0721 25.3788 64.5356 25.3788C63.999 25.3788 63.5559 25.2114 63.2047 24.8767C62.854 24.5223 62.6786 24.0896 62.6786 23.5779L62.6786 11.386C62.6786 10.8743 62.854 10.4512 63.2047 10.1166C63.5559 9.76233 63.999 9.58521 64.5356 9.58521C65.0721 9.58521 65.5152 9.76233 65.8665 10.1166C66.2172 10.4512 66.3925 10.8743 66.3925 11.386L66.3925 12.6554L65.9279 12.5668C66.1137 12.2322 66.372 11.8779 66.7017 11.504C67.032 11.1105 67.4341 10.7463 67.9087 10.4117C68.3833 10.0773 68.9094 9.81152 69.4868 9.61475C70.0649 9.39819 70.6943 9.29004 71.3748 9.29004Z" fill="#81818B" fill-opacity="1.000000" fill-rule="nonzero"/>
	<path id="Vector" d="M93.1575 23.5779C93.1575 24.0896 92.9822 24.5223 92.631 24.8767C92.2808 25.2114 91.8372 25.3788 91.3006 25.3788C90.7646 25.3788 90.3204 25.2114 89.9698 24.8767C89.6196 24.5223 89.4442 24.0896 89.4442 23.5779L89.4442 11.386C89.4442 10.8743 89.6196 10.4512 89.9698 10.1166C90.3204 9.76233 90.7646 9.58521 91.3006 9.58521C91.8372 9.58521 92.2808 9.76233 92.631 10.1166C92.9822 10.4512 93.1575 10.8743 93.1575 11.386L93.1575 23.5779ZM91.2697 7.66638C90.5682 7.66638 90.0732 7.55823 89.7839 7.34167C89.4957 7.12524 89.3513 6.74146 89.3513 6.19043L89.3513 5.62952C89.3513 5.05884 89.5062 4.67493 89.8149 4.47815C90.1451 4.26172 90.6407 4.15344 91.3006 4.15344C92.023 4.15344 92.5286 4.26172 92.8168 4.47815C93.1061 4.6947 93.2505 5.07849 93.2505 5.62952L93.2505 6.19043C93.2505 6.76111 93.0956 7.15466 92.7858 7.37122C92.4771 7.56799 91.971 7.66638 91.2697 7.66638Z" fill="#81818B" fill-opacity="1.000000" fill-rule="nonzero"/>
	<path id="Vector" d="M104.278 9.29004C105.804 9.29004 106.96 9.59509 107.744 10.2051C108.548 10.8152 109.095 11.632 109.384 12.6554C109.693 13.6591 109.848 14.7808 109.848 16.0206L109.848 23.5779C109.848 24.0896 109.672 24.5223 109.322 24.8767C108.971 25.2114 108.527 25.3788 107.991 25.3788C107.455 25.3788 107.011 25.2114 106.661 24.8767C106.309 24.5223 106.134 24.0896 106.134 23.5779L106.134 16.0206C106.134 15.3712 106.042 14.7906 105.856 14.2789C105.691 13.7476 105.381 13.3245 104.927 13.0095C104.474 12.6947 103.823 12.5372 102.978 12.5372C102.152 12.5372 101.451 12.6947 100.873 13.0095C100.316 13.3245 99.8833 13.7476 99.5736 14.2789C99.2848 14.7906 99.1399 15.3712 99.1399 16.0206L99.1399 23.5779C99.1399 24.0896 98.9651 24.5223 98.6144 24.8767C98.2637 25.2114 97.8195 25.3788 97.2835 25.3788C96.747 25.3788 96.3033 25.2114 95.9532 24.8767C95.602 24.5223 95.4266 24.0896 95.4266 23.5779L95.4266 11.386C95.4266 10.8743 95.602 10.4512 95.9532 10.1166C96.3033 9.76233 96.747 9.58521 97.2835 9.58521C97.8195 9.58521 98.2637 9.76233 98.6144 10.1166C98.9651 10.4512 99.1399 10.8743 99.1399 11.386L99.1399 12.6554L98.6764 12.5668C98.8622 12.2322 99.1299 11.8779 99.4807 11.504C99.8314 11.1105 100.245 10.7463 100.719 10.4117C101.193 10.0773 101.73 9.81152 102.328 9.61475C102.926 9.39819 103.576 9.29004 104.278 9.29004Z" fill="#81818B" fill-opacity="1.000000" fill-rule="nonzero"/>
	<path id="Vector" d="M128.221 17.4966C128.221 19.1105 127.84 20.5372 127.076 21.7771C126.333 22.9973 125.323 23.9518 124.043 24.6405C122.785 25.3296 121.372 25.6736 119.804 25.6736C118.236 25.6736 116.812 25.3296 115.533 24.6405C114.275 23.9518 113.264 22.9973 112.5 21.7771C111.758 20.5372 111.386 19.1105 111.386 17.4966C111.386 15.8829 111.758 14.4659 112.5 13.2457C113.264 12.0059 114.275 11.0415 115.533 10.3528C116.812 9.64429 118.236 9.29004 119.804 9.29004C121.372 9.29004 122.785 9.64429 124.043 10.3528C125.323 11.0415 126.333 12.0059 127.076 13.2457C127.84 14.4659 128.221 15.8829 128.221 17.4966ZM124.508 17.4966C124.508 16.493 124.291 15.6271 123.857 14.8989C123.445 14.151 122.878 13.5704 122.155 13.1572C121.454 12.7439 120.67 12.5372 119.804 12.5372C118.937 12.5372 118.143 12.7439 117.421 13.1572C116.719 13.5704 116.151 14.151 115.719 14.8989C115.306 15.6271 115.099 16.493 115.099 17.4966C115.099 18.4807 115.306 19.3466 115.719 20.0945C116.151 20.8226 116.719 21.3933 117.421 21.8066C118.143 22.22 118.937 22.4265 119.804 22.4265C120.67 22.4265 121.454 22.22 122.155 21.8066C122.878 21.3933 123.445 20.8226 123.857 20.0945C124.291 19.3466 124.508 18.4807 124.508 17.4966Z" fill="#81818B" fill-opacity="1.000000" fill-rule="nonzero"/>
	<path id="Vector" d="M142.062 9.58521C142.599 9.58521 143.043 9.76233 143.393 10.1166C143.744 10.451 143.919 10.8743 143.919 11.3859L143.919 18.8842C143.919 20.9702 143.311 22.6233 142.093 23.8435C140.876 25.0637 139.123 25.6736 136.832 25.6736C134.542 25.6736 132.789 25.0637 131.571 23.8435C130.375 22.6233 129.776 20.9702 129.776 18.8842L129.776 11.3859C129.776 10.8743 129.952 10.451 130.303 10.1166C130.654 9.76233 131.097 9.58521 131.633 9.58521C132.17 9.58521 132.613 9.76233 132.964 10.1166C133.315 10.451 133.49 10.8743 133.49 11.3859L133.49 18.8842C133.49 20.0846 133.768 20.98 134.326 21.5704C134.883 22.1412 135.718 22.4265 136.832 22.4265C137.967 22.4265 138.813 22.1412 139.37 21.5704C139.927 20.98 140.206 20.0846 140.206 18.8842L140.206 11.3859C140.206 10.8743 140.381 10.451 140.731 10.1166C141.082 9.76233 141.526 9.58521 142.062 9.58521Z" fill="#81818B" fill-opacity="1.000000" fill-rule="nonzero"/>
	<path id="Vector" d="M145.433 22.9285C145.227 22.653 145.134 22.2986 145.155 21.8657C145.175 21.4327 145.443 21.0588 145.959 20.7439C146.289 20.5471 146.64 20.4684 147.012 20.5078C147.382 20.5275 147.743 20.7046 148.095 21.0391C148.693 21.6097 149.322 22.0526 149.982 22.3676C150.642 22.6824 151.468 22.8398 152.458 22.8398C152.768 22.8201 153.107 22.7808 153.479 22.7218C153.851 22.6431 154.17 22.4856 154.438 22.2495C154.727 21.9937 154.872 21.6097 154.872 21.0981C154.872 20.6652 154.717 20.3208 154.407 20.0649C154.098 19.8091 153.685 19.5927 153.169 19.4155C152.675 19.2384 152.117 19.071 151.499 18.9137C150.859 18.7366 150.198 18.5398 149.518 18.3232C148.857 18.1068 148.249 17.8313 147.692 17.4966C147.135 17.1425 146.681 16.6799 146.33 16.1093C145.98 15.5385 145.805 14.8201 145.805 13.9542C145.805 12.9702 146.093 12.1338 146.671 11.4449C147.249 10.7562 147.991 10.2249 148.899 9.85095C149.828 9.47693 150.797 9.29004 151.808 9.29004C152.447 9.29004 153.118 9.36877 153.82 9.52612C154.521 9.66394 155.192 9.90015 155.831 10.2346C156.47 10.5496 157.007 10.9727 157.44 11.504C157.667 11.7992 157.801 12.1534 157.843 12.5668C157.884 12.9801 157.688 13.354 157.254 13.6886C156.946 13.9247 156.584 14.033 156.171 14.0133C155.759 13.9739 155.418 13.8362 155.15 13.6C154.799 13.167 154.325 12.8226 153.727 12.5668C153.149 12.3109 152.478 12.183 151.715 12.183C151.406 12.183 151.066 12.2224 150.694 12.301C150.343 12.3601 150.034 12.5078 149.766 12.7439C149.497 12.9603 149.363 13.3146 149.363 13.8066C149.363 14.2593 149.518 14.6234 149.828 14.8989C150.137 15.1547 150.549 15.3712 151.066 15.5483C151.602 15.7058 152.169 15.8633 152.768 16.0206C153.386 16.1781 154.016 16.365 154.655 16.5815C155.295 16.7981 155.882 17.0834 156.419 17.4376C156.956 17.7919 157.389 18.2544 157.719 18.8251C158.049 19.3761 158.214 20.0846 158.214 20.9506C158.214 21.9542 157.905 22.8104 157.285 23.5188C156.667 24.2273 155.893 24.7684 154.965 25.1426C154.036 25.4969 153.087 25.6736 152.117 25.6736C150.9 25.6736 149.683 25.4772 148.466 25.0835C147.249 24.67 146.237 23.9518 145.433 22.9285Z" fill="#81818B" fill-opacity="1.000000" fill-rule="nonzero"/>
</svg>
