<svg width="163.667236" height="33.576294" viewBox="0 0 163.667 33.5763" fill="none" xmlns="http://www.w3.org/2000/svg" xmlns:xlink="http://www.w3.org/1999/xlink">
	<desc>
			Created with Pixso.
	</desc>
	<defs/>
	<path id="Vector" d="M0 22.4065L11.6596 17.3533L18.3706 21.1431L19.7263 33.5763L11.4562 33.5101L12.6764 24.8661L11.2528 24.0684L4.2706 29.3876L0 22.4065Z" fill="#81818B" fill-opacity="1.000000" fill-rule="nonzero"/>
	<path id="Vector" d="M19.1167 20.6107L29.4207 27.9906L33.4877 20.8767L25.2175 17.6188L25.2175 16.0231L33.4877 12.6987L29.4207 5.65112L19.1167 13.0312L19.1167 20.6107Z" fill="#81818B" fill-opacity="1.000000" fill-rule="nonzero"/>
	<path id="Vector" d="M18.3706 12.4331L19.7263 0L11.4562 0.132935L12.6764 8.77625L11.2528 9.5741L4.20282 4.25513L0 11.1698L11.6596 16.2229L18.3706 12.4331Z" fill="#81818B" fill-opacity="1.000000" fill-rule="nonzero"/>
	<path id="Vector" d="M61.0786 15.298L61.0786 26.9462L65.5295 26.9462L65.5295 12.1017L59.0479 12.1017L59.0479 15.298L61.0786 15.298Z" fill="#81818B" fill-opacity="1.000000" fill-rule="nonzero"/>
	<path id="Vector" d="M60.9395 10.016C61.3474 10.4313 61.969 10.6389 62.8032 10.6389C63.6385 10.6389 64.2501 10.4313 64.6391 10.016C65.0476 9.5824 65.2513 9.04065 65.2513 8.39075C65.2513 7.72241 65.0476 7.18066 64.6391 6.76538C64.2501 6.33203 63.6385 6.11523 62.8032 6.11523C61.969 6.11523 61.3474 6.33203 60.9395 6.76538C60.5504 7.18066 60.3557 7.72241 60.3557 8.39075C60.3557 9.04065 60.5504 9.5824 60.9395 10.016Z" fill="#81818B" fill-opacity="1.000000" fill-rule="nonzero"/>
	<path id="Vector" d="M45.5837 26.6208C46.8448 27.1807 48.393 27.4608 50.2289 27.4608C51.9541 27.4608 53.4372 27.1986 54.6804 26.675C55.9231 26.1516 56.8781 25.4199 57.5453 24.4808C58.232 23.5237 58.5748 22.4132 58.5748 21.1489C58.5748 19.9211 58.2509 18.8827 57.6015 18.0338C56.9704 17.1671 56.09 16.4899 54.9586 16.0024C53.8273 15.4966 52.5195 15.1807 51.0358 15.0543L49.4782 14.9189C48.551 14.8466 47.8832 14.6029 47.4753 14.1874C47.0668 13.7721 46.8631 13.2844 46.8631 12.7247C46.8631 12.2911 46.975 11.894 47.1965 11.5328C47.4196 11.1536 47.753 10.8556 48.1982 10.6388C48.6623 10.4222 49.2278 10.3138 49.8955 10.3138C50.6001 10.3138 51.1844 10.4402 51.648 10.6931C51.7498 10.7466 51.847 10.8037 51.9378 10.8644L51.9598 10.8794C51.994 10.9023 52.0276 10.926 52.0601 10.9501C52.342 11.1597 52.5662 11.4081 52.7332 11.6953C52.9736 12.0928 53.0949 12.535 53.0949 13.0227L57.5453 13.0227C57.5453 11.7223 57.2392 10.5938 56.6276 9.63672C56.016 8.6615 55.135 7.91211 53.9853 7.38818C52.8534 6.84644 51.4905 6.57556 49.8955 6.57556C48.3746 6.57556 47.0579 6.82861 45.9449 7.33411C44.8324 7.82178 43.9609 8.526 43.3304 9.4469C42.7177 10.3679 42.4117 11.4606 42.4117 12.7247C42.4117 14.4764 43.0149 15.8849 44.2203 16.9506C45.4257 18.016 47.0395 18.6299 49.0608 18.7924L50.5912 18.9279C51.8333 19.0363 52.7332 19.28 53.2897 19.6592C53.8456 20.0204 54.1239 20.517 54.1239 21.1489C54.1239 21.4396 54.0751 21.7119 53.9774 21.9664C53.905 22.1555 53.8052 22.3345 53.6792 22.5035C53.3815 22.8826 52.9463 23.1805 52.3714 23.3976C51.7966 23.6141 51.0826 23.7224 50.2289 23.7224C49.2834 23.7224 48.5137 23.5962 47.9205 23.343C47.3267 23.0723 46.882 22.7201 46.5844 22.287C46.3066 21.8533 46.168 21.3839 46.168 20.8782L41.7444 20.8782C41.7444 22.1604 42.0688 23.2982 42.7177 24.2911C43.3672 25.2665 44.3221 26.0433 45.5837 26.6208Z" fill="#81818B" fill-opacity="1.000000" fill-rule="nonzero"/>
	<path id="Vector" d="M75.4609 27.1355C73.9211 27.1355 72.679 26.9552 71.7329 26.5936C70.7869 26.2147 70.0918 25.5914 69.6465 24.7247C69.2202 23.8397 69.0066 22.6482 69.0066 21.149L69.0066 15.271L66.6976 15.271L66.6976 12.1017L69.0066 12.1017L69.0066 8.09277L73.1515 8.09277L73.1515 12.1017L77.6029 12.1017L77.6029 15.271L73.1515 15.271L73.1515 21.3118C73.1515 22.016 73.3373 22.5577 73.7079 22.9368C74.0975 23.2982 74.6446 23.4786 75.3496 23.4786L77.6029 23.4786L77.6029 27.1355L75.4609 27.1355Z" fill="#81818B" fill-opacity="1.000000" fill-rule="nonzero"/>
	<path id="Vector" d="M82.9622 26.8107C83.9633 27.2438 85.1136 27.4608 86.4114 27.4608C87.6908 27.4608 88.8227 27.2438 89.8055 26.8107C90.7883 26.3771 91.6047 25.7721 92.2536 24.9958C92.9025 24.219 93.3388 23.334 93.5609 22.3411L89.4716 22.3411C89.2863 22.7926 88.934 23.1716 88.4148 23.4785C87.8956 23.7855 87.2273 23.9395 86.4114 23.9395C85.9058 23.9395 85.4543 23.8807 85.0564 23.7644C84.7534 23.6759 84.482 23.5537 84.2416 23.3976C83.6851 23.0365 83.2772 22.5304 83.0173 21.8805C82.9453 21.6953 82.8839 21.5017 82.8319 21.3C82.7789 21.0956 82.7364 20.8829 82.7044 20.6616L93.8391 20.6616L93.8391 19.1987C93.8391 17.8444 93.5425 16.5983 92.9492 15.4607C92.3554 14.3047 91.4929 13.3748 90.362 12.6704C89.249 11.9481 87.8767 11.5869 86.2444 11.5869C85.0018 11.5869 83.8888 11.8037 82.906 12.2372C81.9421 12.6523 81.1351 13.2212 80.4862 13.9436C79.8373 14.6659 79.3365 15.4878 78.9832 16.4088C78.6498 17.3115 78.4828 18.2596 78.4828 19.2528L78.4828 19.7946C78.4828 20.7518 78.6498 21.6908 78.9832 22.6118C79.3365 23.5148 79.8373 24.3363 80.4862 25.0768C81.1535 25.7994 81.9783 26.3771 82.9622 26.8107ZM82.781 17.983C82.7931 17.9257 82.8062 17.8693 82.8204 17.8136C82.8593 17.6605 82.9034 17.5137 82.9543 17.3734C82.9826 17.2936 83.0131 17.2157 83.0456 17.14C83.3233 16.4718 83.7318 15.9663 84.2694 15.6232C84.4705 15.4949 84.6884 15.3906 84.922 15.3104C85.3157 15.1758 85.7567 15.1084 86.2444 15.1084C87.0052 15.1084 87.6352 15.28 88.136 15.6232C88.6552 15.9481 89.0448 16.4266 89.3047 17.0587C89.3257 17.1097 89.3456 17.1616 89.3651 17.2142C89.3955 17.298 89.4244 17.3839 89.4506 17.472C89.49 17.6031 89.5241 17.7388 89.5546 17.879C89.5766 17.9823 89.5955 18.0883 89.6123 18.1965L82.738 18.1965C82.7511 18.1241 82.7653 18.0531 82.781 17.983Z" fill="#81818B" fill-opacity="1.000000" fill-rule="evenodd"/>
	<path id="Vector" d="M95.676 26.9462L95.676 12.1017L99.2093 12.1017L99.2093 15.8405C99.257 15.6182 99.3116 15.4048 99.3726 15.2003C99.425 15.028 99.4812 14.8617 99.5427 14.7021C99.9322 13.6907 100.517 12.9324 101.295 12.4266C102.074 11.903 103.029 11.6412 104.161 11.6412L104.355 11.6412C105.506 11.6412 106.46 11.903 107.221 12.4266C108 12.9324 108.584 13.6907 108.973 14.7021L109.004 14.7784L109.03 14.8483C109.048 14.799 109.066 14.7502 109.085 14.7021C109.492 13.6907 110.086 12.9324 110.865 12.4266C111.644 11.903 112.599 11.6412 113.731 11.6412L113.926 11.6412C115.075 11.6412 116.039 11.903 116.818 12.4266C117.616 12.9324 118.219 13.6907 118.626 14.7021C119.034 15.7135 119.239 16.9775 119.239 18.4945L119.239 26.9462L114.788 26.9462L114.788 18.2506C114.788 17.438 114.565 16.7789 114.12 16.2733C113.694 15.7676 113.081 15.5148 112.284 15.5148C111.486 15.5148 110.856 15.7766 110.392 16.3003C109.929 16.8059 109.697 17.4832 109.697 18.332L109.697 26.9462L105.218 26.9462L105.218 18.2506C105.218 17.438 104.995 16.7789 104.55 16.2733C104.124 15.7676 103.521 15.5148 102.743 15.5148C101.926 15.5148 101.286 15.7766 100.823 16.3003C100.359 16.8059 100.127 17.4832 100.127 18.332L100.127 26.9462L95.676 26.9462Z" fill="#81818B" fill-opacity="1.000000" fill-rule="nonzero"/>
	<path id="Vector" d="M131.129 24.0858L131.129 26.9463L134.661 26.9463L134.661 17.8445C134.661 16.4719 134.383 15.3524 133.827 14.4855C133.27 13.6006 132.455 12.9414 131.379 12.5081C130.322 12.0747 129.015 11.8579 127.456 11.8579C127.119 11.8579 126.767 11.8613 126.399 11.8687C126.182 11.8729 125.959 11.8784 125.732 11.885C125.12 11.9031 124.526 11.9302 123.951 11.9663L123.512 11.9951C123.286 12.0104 123.075 12.0254 122.875 12.0408C122.726 12.052 122.583 12.0634 122.449 12.0747L122.449 15.7317C123.024 15.6954 123.664 15.6593 124.369 15.6233C124.566 15.6133 124.761 15.6039 124.955 15.5951C125.235 15.5825 125.511 15.5715 125.785 15.562C126.001 15.5543 126.215 15.5476 126.427 15.5419C127.095 15.5238 127.633 15.5149 128.041 15.5149C128.857 15.5149 129.45 15.7043 129.822 16.0837C130.192 16.4629 130.377 17.0317 130.377 17.7904L130.377 17.8445L127.623 17.8445C126.27 17.8445 125.073 18.0161 124.034 18.3593C122.996 18.6842 122.189 19.1989 121.615 19.9031C121.039 20.5895 120.752 21.4744 120.752 22.5577C120.752 23.5511 120.984 24.4088 121.447 25.1315C121.911 25.8353 122.551 26.3772 123.367 26.7561C124.202 27.1356 125.166 27.3253 126.26 27.3253C127.317 27.3253 128.208 27.1356 128.931 26.7561C129.673 26.3772 130.248 25.8353 130.656 25.1315C130.728 25.0125 130.794 24.8894 130.857 24.7615C130.945 24.5807 131.024 24.3905 131.093 24.1909L131.129 24.0858ZM130.377 21.4473L130.377 20.2554L127.596 20.2554C126.816 20.2554 126.214 20.4448 125.787 20.8242C125.379 21.1854 125.175 21.682 125.175 22.314C125.175 22.6115 125.226 22.8817 125.328 23.1256C125.43 23.3699 125.583 23.5869 125.787 23.7766C126.214 24.1382 126.816 24.3185 127.596 24.3185C127.744 24.3185 127.887 24.3113 128.025 24.2975C128.138 24.2858 128.249 24.2693 128.355 24.2482C128.558 24.208 128.751 24.1498 128.931 24.0746C129.339 23.8943 129.673 23.5963 129.932 23.1807C130.192 22.7654 130.341 22.1874 130.377 21.4473Z" fill="#81818B" fill-opacity="1.000000" fill-rule="evenodd"/>
	<path id="Vector" d="M137.325 26.9462L137.325 12.1017L140.859 12.1017L140.859 17.0013C141.028 15.6025 141.454 14.4747 142.138 13.6185C143.066 12.481 144.4 11.9121 146.144 11.9121L146.729 11.9121L146.729 15.6501L145.616 15.6501C144.392 15.6501 143.446 15.9751 142.778 16.6252C142.11 17.2574 141.776 18.1785 141.776 19.3882L141.776 26.9462L137.325 26.9462Z" fill="#81818B" fill-opacity="1.000000" fill-rule="nonzero"/>
	<path id="Vector" d="M152.373 20.0115L153.847 20.0115L158.66 26.9463L163.667 26.9463L157.565 18.4296L162.582 12.1018L157.909 12.1018L152.373 19.16L152.373 7.17175L147.922 7.17175L147.922 26.9463L152.373 26.9463L152.373 20.0115Z" fill="#81818B" fill-opacity="1.000000" fill-rule="nonzero"/>
</svg>
