<svg width="166.607422" height="37.131470" viewBox="0 0 166.607 37.1315" fill="none" xmlns="http://www.w3.org/2000/svg" xmlns:xlink="http://www.w3.org/1999/xlink">
	<desc>
			Created with Pixso.
	</desc>
	<defs/>
	<path id="Vector" d="M49.3428 9.89526C50.9304 9.89526 52.3043 10.1508 53.4651 10.6619C54.6426 11.1729 55.5467 11.8983 56.1783 12.838C56.8099 13.7777 57.1259 14.8905 57.1259 16.1765C57.1259 17.4459 56.8099 18.5587 56.1783 19.5149C55.5467 20.4546 54.6426 21.1799 53.4651 21.6913C52.3043 22.1855 50.9304 22.433 49.3428 22.433L45.7334 22.433L45.7334 27.2058L41.5864 27.2058L41.5864 9.89526L49.3428 9.89526ZM49.1128 19.1687C50.3581 19.1687 51.3057 18.9131 51.9541 18.4021C52.603 17.8745 52.9269 17.1327 52.9269 16.1765C52.9269 15.2037 52.603 14.4619 51.9541 13.9508C51.3057 13.4232 50.3581 13.1595 49.1128 13.1595L45.7334 13.1595L45.7334 19.1687L49.1128 19.1687Z" fill="#81818B" fill-opacity="1.000000" fill-rule="nonzero"/>
	<path id="Vector" d="M62.3397 15.6572C62.817 15.0143 63.4575 14.5278 64.2592 14.1981C65.0787 13.8684 66.0168 13.7036 67.0753 13.7036L67.0753 17.2645C66.6316 17.2316 66.3329 17.2151 66.1791 17.2151C65.0356 17.2151 64.14 17.5284 63.4916 18.1548C62.8427 18.7648 62.5182 19.688 62.5182 20.9244L62.5182 27.2058L58.5251 27.2058L58.5251 13.9015L62.3397 13.9015L62.3397 15.6572Z" fill="#81818B" fill-opacity="1.000000" fill-rule="nonzero"/>
	<path id="Vector" d="M74.5984 27.4033C73.1479 27.4033 71.8422 27.1151 70.6819 26.538C69.5385 25.9446 68.6423 25.1283 67.994 24.0896C67.3456 23.051 67.0211 21.8723 67.0211 20.5536C67.0211 19.2346 67.3456 18.0559 67.994 17.0172C68.6423 15.9786 69.5385 15.1709 70.6819 14.5939C71.8422 14.0004 73.1479 13.7036 74.5984 13.7036C76.049 13.7036 77.3463 14.0004 78.4897 14.5939C79.6332 15.1709 80.5294 15.9786 81.1783 17.0172C81.8261 18.0559 82.1506 19.2346 82.1506 20.5536C82.1506 21.8723 81.8261 23.051 81.1783 24.0896C80.5294 25.1283 79.6332 25.9446 78.4897 26.538C77.3463 27.1151 76.049 27.4033 74.5984 27.4033ZM74.5984 24.238C75.6227 24.238 76.459 23.9087 77.1074 23.2489C77.7731 22.5731 78.1055 21.6748 78.1055 20.5536C78.1055 19.4325 77.7731 18.5422 77.1074 17.8828C76.459 17.2068 75.6227 16.8689 74.5984 16.8689C73.5747 16.8689 72.73 17.2068 72.0643 17.8828C71.3986 18.5422 71.0657 19.4325 71.0657 20.5536C71.0657 21.6748 71.3986 22.5731 72.0643 23.2489C72.73 23.9087 73.5747 24.238 74.5984 24.238Z" fill="#81818B" fill-opacity="1.000000" fill-rule="nonzero"/>
	<path id="Vector" d="M100.257 9.89526L100.257 27.2058L96.8527 27.2058L87.9178 16.6958L87.9178 27.2058L83.8217 27.2058L83.8217 9.89526L87.2521 9.89526L96.1613 20.4052L96.1613 9.89526L100.257 9.89526Z" fill="#81818B" fill-opacity="1.000000" fill-rule="nonzero"/>
	<path id="Vector" d="M126.339 26.5626C125.947 26.843 125.46 27.0574 124.88 27.2058C124.316 27.3373 123.719 27.4033 123.087 27.4033C121.449 27.4033 120.178 26.9996 119.273 26.192C118.386 25.3838 117.942 24.1968 117.942 22.6309L117.942 17.1656L115.817 17.1656L115.817 14.1981L117.942 14.1981L117.942 10.9586L121.936 10.9586L121.936 14.1981L125.366 14.1981L125.366 17.1656L121.936 17.1656L121.936 22.5814C121.936 23.1417 122.081 23.5787 122.371 23.8921C122.678 24.1886 123.105 24.337 123.651 24.337C124.282 24.337 124.82 24.1721 125.264 23.8427L126.339 26.5626Z" fill="#81818B" fill-opacity="1.000000" fill-rule="nonzero"/>
	<path id="Vector" d="M108.491 13.7036C110.624 13.7036 112.262 14.1981 113.406 15.1874C114.549 16.16 115.121 17.6355 115.121 19.6139L115.121 27.2058L111.384 27.2058L111.384 25.5488C110.633 26.7853 109.233 27.4033 107.185 27.4033C106.127 27.4033 105.205 27.2306 104.42 26.8843C103.652 26.538 103.063 26.0601 102.654 25.4498C102.244 24.84 102.039 24.1473 102.039 23.3727C102.039 22.1361 102.517 21.1636 103.473 20.4546C104.446 19.7457 105.939 19.3914 107.953 19.3914L111.127 19.3914C111.127 18.5504 110.863 17.9076 110.334 17.4624C109.804 17.0007 109.011 16.77 107.953 16.77C107.219 16.77 106.494 16.8854 105.777 17.1162C105.077 17.3306 104.48 17.6273 103.985 18.0065L102.552 15.3109C103.302 14.7999 104.198 14.4043 105.239 14.124C106.297 13.8438 107.382 13.7036 108.491 13.7036ZM108.184 24.807C108.866 24.807 109.472 24.6586 110.001 24.3618C110.53 24.0485 110.905 23.5953 111.127 23.0016L111.127 21.6418L108.388 21.6418C106.75 21.6418 105.93 22.1609 105.93 23.1995C105.93 23.6942 106.127 24.0896 106.519 24.3865C106.929 24.6669 107.483 24.807 108.184 24.807Z" fill="#81818B" fill-opacity="1.000000" fill-rule="nonzero"/>
	<path id="Vector" d="M141.176 13.9015L141.176 27.2059L137.387 27.2059L137.387 25.623C136.858 26.1998 136.227 26.6451 135.493 26.9585C134.759 27.2554 133.966 27.4034 133.112 27.4034C131.303 27.4034 129.869 26.9008 128.811 25.8951C127.753 24.8895 127.224 23.3975 127.224 21.4192L127.224 13.9015L131.218 13.9015L131.218 20.8502C131.218 22.9934 132.148 24.0649 134.008 24.0649C134.964 24.0649 135.732 23.7686 136.312 23.1748C136.892 22.5649 137.182 21.6666 137.182 20.4794L137.182 13.9015L141.176 13.9015Z" fill="#81818B" fill-opacity="1.000000" fill-rule="nonzero"/>
	<path id="Vector" d="M147.41 15.6572C147.888 15.0143 148.529 14.5278 149.33 14.1981C150.149 13.8684 151.088 13.7036 152.147 13.7036L152.147 17.2645C151.703 17.2316 151.404 17.2151 151.251 17.2151C150.107 17.2151 149.211 17.5284 148.563 18.1548C147.914 18.7648 147.59 19.688 147.59 20.9244L147.59 27.2058L143.596 27.2058L143.596 13.9015L147.41 13.9015L147.41 15.6572Z" fill="#81818B" fill-opacity="1.000000" fill-rule="nonzero"/>
	<path id="Vector" d="M166.607 20.6033C166.607 20.6522 166.582 20.9985 166.531 21.6418L156.112 21.6418C156.299 22.4661 156.743 23.1171 157.442 23.5953C158.142 24.0731 159.013 24.3123 160.054 24.3123C160.77 24.3123 161.402 24.2134 161.948 24.0155C162.511 23.8015 163.032 23.4716 163.509 23.0262L165.635 25.252C164.338 26.6864 162.443 27.4033 159.951 27.4033C158.398 27.4033 157.025 27.1151 155.83 26.538C154.635 25.9446 153.713 25.1283 153.064 24.0896C152.416 23.051 152.092 21.8723 152.092 20.5536C152.092 19.2511 152.408 18.0807 153.039 17.042C153.688 15.9869 154.567 15.1709 155.676 14.5939C156.802 14.0004 158.057 13.7036 159.44 13.7036C160.788 13.7036 162.008 13.9839 163.1 14.5443C164.192 15.1049 165.045 15.9127 165.66 16.9679C166.292 18.0065 166.607 19.2181 166.607 20.6033ZM159.465 16.6216C158.561 16.6216 157.8 16.8689 157.187 17.3635C156.572 17.8582 156.197 18.5341 156.06 19.3914L162.844 19.3914C162.708 18.5504 162.332 17.8828 161.718 17.3882C161.103 16.8771 160.353 16.6216 159.465 16.6216Z" fill="#81818B" fill-opacity="1.000000" fill-rule="nonzero"/>
	<path id="Vector" d="M18.8426 0.255005C18.2341 -0.0849609 17.4839 -0.0849609 16.8754 0.255005C12.5534 2.67004 9.63831 7.18872 9.63831 12.3673C9.63831 13.1053 9.69757 13.83 9.81165 14.5371C6.83636 13.5612 3.61487 13.9163 0.983582 15.3809C0.374512 15.7198 -0.000610352 16.3475 0 17.0265C0.00311279 20.609 1.92963 24.1003 5.37994 26.0245C7.07263 26.9688 8.92017 27.4174 10.7426 27.4182C10.4653 28.1772 10.3144 28.9935 10.3144 29.8441C10.3144 33.8691 13.6921 37.1315 17.8587 37.1315C22.0255 37.1315 25.403 33.8691 25.403 29.8441C25.403 28.9915 25.2515 28.1735 24.9731 27.4132C26.6869 27.3608 28.413 26.9115 30.0025 26.0245C33.4532 24.1003 35.3794 20.609 35.382 17.0267C35.3831 16.3477 35.0077 15.7201 34.3987 15.381C31.8713 13.9741 28.7988 13.5909 25.9237 14.4281C26.0266 13.7556 26.0795 13.0675 26.0795 12.3673C26.0795 7.18872 23.1647 2.67004 18.8426 0.255005ZM13.5671 12.3673C13.5671 9.00452 15.2527 6.02014 17.859 4.1626C20.4653 6.02014 22.1509 9.00452 22.1509 12.3673C22.1509 15.7301 20.4653 18.7144 17.859 20.5719C15.2527 18.7144 13.5671 15.7301 13.5671 12.3673ZM25.6061 18.6692C27.4202 17.6575 29.5164 17.5398 31.3474 18.1799C31.0062 20.0319 29.8522 21.7263 28.0382 22.7382C26.2242 23.7499 24.1281 23.8674 22.2969 23.2275C22.6384 21.3754 23.7921 19.6809 25.6061 18.6692ZM4.0351 18.1798C5.86609 17.5397 7.96222 17.6573 9.77625 18.6691C11.5904 19.6808 12.7439 21.3754 13.0855 23.2271C11.2545 23.8674 9.15839 23.7499 7.3443 22.7382C5.53027 21.7263 4.37665 20.0317 4.0351 18.1798ZM14.2432 29.8441C14.2432 27.9154 15.8619 26.3516 17.8587 26.3516C19.8555 26.3516 21.4744 27.9154 21.4744 29.8441C21.4744 31.7728 19.8555 33.3368 17.8587 33.3368C15.8619 33.3368 14.2432 31.7728 14.2432 29.8441Z" fill="#81818B" fill-opacity="1.000000" fill-rule="evenodd"/>
</svg>
