<svg width="163.391418" height="30.511841" viewBox="0 0 163.391 30.5118" fill="none" xmlns="http://www.w3.org/2000/svg" xmlns:xlink="http://www.w3.org/1999/xlink">
	<desc>
			Created with Pixso.
	</desc>
	<defs/>
	<path id="Vector" d="M52.4091 27.2588C50.0523 27.2588 47.9691 26.7839 46.1594 25.8352C44.3492 24.8644 42.9501 23.4946 41.9611 21.7261C40.9725 19.9574 40.4779 17.876 40.4779 15.4818C40.4779 13.0875 40.9725 11.0061 41.9611 9.23743C42.9501 7.44714 44.3492 6.07751 46.1594 5.12842C47.9691 4.15784 50.0523 3.67249 52.4091 3.67249C54.0087 3.67249 55.4183 3.84509 56.639 4.19019C57.8806 4.51367 59.0167 5.03137 60.0478 5.74316L60.0478 10.4344C59.1223 9.65796 58.0596 9.09717 56.86 8.75208C55.6814 8.38538 54.3348 8.20203 52.8196 8.20203C51.41 8.20203 50.1364 8.50403 49.0002 9.10791C47.8851 9.69031 47.001 10.5315 46.349 11.6316C45.6964 12.7316 45.3704 14.015 45.3704 15.4818C45.3704 16.9701 45.6649 18.275 46.254 19.3966C46.8645 20.4966 47.7166 21.3486 48.8107 21.9525C49.9048 22.5565 51.168 22.8585 52.5986 22.8585C53.9032 22.8585 55.0393 22.6212 56.0074 22.1467L56.0074 17.7788L52.4406 17.7788L52.4406 14.1552L60.6473 14.1552L60.6473 25.0586C58.5641 26.5253 55.8184 27.2588 52.4091 27.2588Z" fill="#81818B" fill-opacity="1.000000" fill-rule="nonzero"/>
	<path id="Vector" d="M61.7556 11.2434L66.3641 11.2434L66.3641 13.4758C66.9746 12.7209 67.8267 12.1493 68.9208 11.7611C70.0149 11.3512 71.2571 11.1464 72.6457 11.1464L72.6457 14.8671C71.1935 14.8671 69.9099 15.0935 68.7948 15.5465C67.7002 15.9995 66.9426 16.6897 66.5221 17.6172L66.5221 26.7736L61.7556 26.7736L61.7556 11.2434Z" fill="#81818B" fill-opacity="1.000000" fill-rule="nonzero"/>
	<path id="Vector" d="M81.8054 27.2589C78.9011 27.2589 76.6178 26.5468 74.9557 25.123C73.293 23.6783 72.4619 21.6614 72.4619 19.073C72.4619 16.5062 73.1985 14.4788 74.6716 12.9905C76.1658 11.5022 78.291 10.7581 81.0478 10.7581C82.8574 10.7581 84.3931 11.1031 85.6562 11.7933C86.9183 12.4835 87.8764 13.4435 88.5285 14.6729C89.181 15.8807 89.5071 17.2505 89.5071 18.7819L89.5071 20.7555L77.0074 20.7555C77.3439 22.7399 79.1536 23.7323 82.4364 23.7323C83.4045 23.7323 84.4041 23.6459 85.4352 23.4731C86.4663 23.3007 87.3609 23.0634 88.1185 22.7615L88.1185 26.1912C87.3819 26.5143 86.4348 26.7734 85.2772 26.9678C84.1201 27.1615 82.9625 27.2589 81.8054 27.2589ZM84.9932 17.5848C84.9301 16.5494 84.5511 15.7513 83.8571 15.1906C83.1625 14.6082 82.2048 14.317 80.9843 14.317C79.7852 14.317 78.838 14.6082 78.1434 15.1906C77.4494 15.7729 77.0704 16.571 77.0074 17.5848L84.9932 17.5848Z" fill="#81818B" fill-opacity="1.000000" fill-rule="nonzero"/>
	<path id="Vector" d="M99.2769 27.2589C96.3731 27.2589 94.0899 26.5468 92.4272 25.123C90.7651 23.6783 89.9335 21.6614 89.9335 19.073C89.9335 16.5062 90.67 14.4788 92.1432 12.9905C93.6373 11.5022 95.7626 10.7581 98.5193 10.7581C100.329 10.7581 101.865 11.1031 103.128 11.7933C104.39 12.4835 105.348 13.4435 106 14.6729C106.653 15.8807 106.979 17.2505 106.979 18.7819L106.979 20.7555L94.4789 20.7555C94.8154 22.7399 96.6257 23.7323 99.9084 23.7323C100.877 23.7323 101.876 23.6459 102.907 23.4731C103.938 23.3007 104.832 23.0634 105.59 22.7615L105.59 26.1912C104.853 26.5143 103.907 26.7734 102.749 26.9678C101.592 27.1615 100.435 27.2589 99.2769 27.2589ZM102.465 17.5848C102.402 16.5494 102.023 15.7513 101.329 15.1906C100.634 14.6082 99.6769 14.317 98.4563 14.317C97.2567 14.317 96.3101 14.6082 95.6155 15.1906C94.921 15.7729 94.5424 16.571 94.4789 17.5848L102.465 17.5848Z" fill="#81818B" fill-opacity="1.000000" fill-rule="nonzero"/>
	<path id="Vector" d="M108.037 11.2434L112.645 11.2434L112.645 13.1522C113.34 12.3542 114.16 11.7611 115.107 11.3728C116.075 10.963 117.085 10.7581 118.137 10.7581C120.2 10.7581 121.736 11.3296 122.746 12.4728C123.777 13.5945 124.293 15.1151 124.293 17.0348L124.293 26.7734L119.526 26.7734L119.526 17.5848C119.526 15.5789 118.621 14.5758 116.811 14.5758C116.012 14.5758 115.265 14.7808 114.571 15.1906C113.876 15.5789 113.287 16.1613 112.803 16.9376L112.803 26.7734L108.037 26.7734L108.037 11.2434Z" fill="#81818B" fill-opacity="1.000000" fill-rule="nonzero"/>
	<path id="Vector" d="M128.498 8.84924C127.762 8.84924 127.141 8.6012 126.636 8.1051C126.13 7.60901 125.878 6.98352 125.878 6.22852C125.878 5.49524 126.13 4.88049 126.636 4.3844C127.141 3.8667 127.762 3.60791 128.498 3.60791C129.234 3.60791 129.855 3.8667 130.36 4.3844C130.865 4.88049 131.118 5.49524 131.118 6.22852C131.118 6.98352 130.865 7.60901 130.36 8.1051C129.855 8.6012 129.234 8.84924 128.498 8.84924ZM126.099 11.2434L130.897 11.2434L130.897 26.7736L126.099 26.7736L126.099 11.2434Z" fill="#81818B" fill-opacity="1.000000" fill-rule="nonzero"/>
	<path id="Vector" d="M139.026 27.2589C137.89 27.2589 136.669 27.129 135.365 26.8704C134.081 26.6332 133.071 26.2881 132.335 25.8352L132.335 22.0173C133.176 22.5349 134.186 22.9556 135.365 23.2791C136.544 23.6025 137.638 23.7643 138.648 23.7643C139.51 23.7643 140.142 23.6888 140.541 23.538C140.941 23.387 141.141 23.1066 141.141 22.6968C141.141 22.3732 141.025 22.1144 140.794 21.9203C140.562 21.7046 140.204 21.5212 139.721 21.3702C139.258 21.1976 138.479 20.9496 137.385 20.6261C136.102 20.2378 135.091 19.8496 134.355 19.4613C133.639 19.0515 133.092 18.5447 132.714 17.9407C132.356 17.3367 132.177 16.5602 132.177 15.6112C132.177 13.9934 132.797 12.7855 134.039 11.9875C135.301 11.1678 137.006 10.7581 139.153 10.7581C140.204 10.7581 141.288 10.8767 142.404 11.1139C143.54 11.3296 144.413 11.6208 145.024 11.9875L145.024 15.7083C144.413 15.2985 143.614 14.9641 142.625 14.7053C141.657 14.4464 140.71 14.317 139.784 14.317C138.921 14.317 138.248 14.4033 137.764 14.5758C137.301 14.7484 137.069 15.0719 137.069 15.5465C137.069 15.9563 137.29 16.269 137.732 16.4847C138.195 16.7004 139.047 16.9701 140.289 17.2936L140.92 17.4553C142.246 17.822 143.277 18.2318 144.013 18.6848C144.75 19.1162 145.265 19.6447 145.56 20.2701C145.876 20.8741 146.034 21.6399 146.034 22.5673C146.034 23.991 145.434 25.134 144.235 25.9969C143.035 26.8379 141.299 27.2589 139.026 27.2589Z" fill="#81818B" fill-opacity="1.000000" fill-rule="nonzero"/>
	<path id="Vector" d="M147.135 2.86365L151.902 2.86365L151.902 13.0228C152.617 12.2679 153.427 11.7072 154.332 11.3405C155.237 10.9521 156.205 10.7581 157.236 10.7581C159.299 10.7581 160.835 11.3296 161.845 12.4728C162.876 13.5945 163.391 15.1151 163.391 17.0348L163.391 26.7736L158.625 26.7736L158.625 17.5848C158.625 15.5789 157.72 14.5759 155.911 14.5759C155.111 14.5759 154.364 14.7808 153.669 15.1906C152.975 15.5789 152.386 16.1613 151.902 16.9377L151.902 26.7736L147.135 26.7736L147.135 2.86365Z" fill="#81818B" fill-opacity="1.000000" fill-rule="nonzero"/>
	<path id="Vector" d="M24.1997 7.44141C24.1997 11.5511 20.9496 14.8828 16.94 14.8828C12.9304 14.8828 9.68005 11.5511 9.68005 7.44141C9.68005 3.33167 12.9304 0 16.94 0C20.9496 0 24.1997 3.33167 24.1997 7.44141ZM0.0527344 14.342C7.96228 13.7955 14.8557 19.8655 15.4978 27.99C15.5643 28.8318 15.5612 29.6628 15.4932 30.4777C7.58368 31.0242 0.690247 24.9541 0.0481567 16.8297C-0.0183105 15.9878 -0.0151978 15.1566 0.0527344 14.342ZM20.6108 30.1931C28.5371 29.5348 34.4588 22.4692 33.9259 14.3621C33.131 14.2924 32.3204 14.2891 31.4988 14.3573C23.5725 15.0154 17.6508 22.0812 18.1839 30.1884C18.9786 30.2582 19.7894 30.2614 20.6108 30.1931Z" fill="#81818B" fill-opacity="1.000000" fill-rule="evenodd"/>
</svg>
