<svg width="163.180420" height="34.287109" viewBox="0 0 163.18 34.2871" fill="none" xmlns="http://www.w3.org/2000/svg" xmlns:xlink="http://www.w3.org/1999/xlink">
	<desc>
			Created with Pixso.
	</desc>
	<defs/>
	<path id="Vector" d="M5.96875 8.62842C8.70911 5.12622 13.0973 2.8573 18.0432 2.8573C23.0182 2.8573 27.4287 5.15295 30.1658 8.69031C30.0493 8.8042 29.9432 8.92212 29.8472 9.03992C29.3458 9.65674 28.9685 10.4513 28.6664 11.2583C28.0577 12.881 27.5936 15.0009 27.1638 16.9858L27.1256 17.1643C26.6968 19.1456 26.2982 20.9883 25.8163 22.3561C25.5997 22.9706 25.3944 23.4052 25.2123 23.6833C25.0223 23.4028 24.8068 22.9631 24.5786 22.3398C24.0631 20.9326 23.6296 19.0187 23.17 16.975L23.1552 16.9081L23.1552 16.908C22.7135 14.9451 22.2451 12.8622 21.661 11.2679C21.3676 10.467 21.0074 9.68042 20.5366 9.06921C20.0745 8.46948 19.3051 7.7926 18.1799 7.7926C17.0618 7.7926 16.2889 8.46216 15.8201 9.05518C15.3401 9.66248 14.9658 10.4458 14.6576 11.2471C14.0367 12.8606 13.5292 14.9712 13.0568 16.9589L13.0079 17.1643C12.5402 19.1333 12.1029 20.9741 11.6066 22.3446C11.4171 22.868 11.2383 23.2662 11.0764 23.5507C10.9182 23.2676 10.7439 22.8719 10.5596 22.353C10.0834 21.0117 9.66614 19.2224 9.21814 17.3005L9.13977 16.9642C8.67554 14.9753 8.17188 12.8608 7.54224 11.2423C7.22937 10.4381 6.84668 9.65076 6.35156 9.04077C6.23938 8.90259 6.11194 8.76245 5.96875 8.62842ZM4.31018 11.3176C4.44067 11.5625 4.57874 11.866 4.72156 12.2329C5.2666 13.6339 5.72827 15.5457 6.20386 17.5829L6.29639 17.9799C6.72925 19.8387 7.17969 21.7723 7.71008 23.2662C7.99219 24.0608 8.33301 24.839 8.77112 25.4437C9.18555 26.0157 9.92896 26.7546 11.072 26.7546C12.2118 26.7546 12.9569 26.0194 13.3741 25.45C13.816 24.8466 14.1624 24.0692 14.4502 23.2742C15.002 21.7507 15.4718 19.7717 15.9214 17.8778L15.9214 17.8777L15.9901 17.5883C16.4746 15.5498 16.9409 13.6343 17.4819 12.2281C17.7327 11.5767 17.9673 11.1228 18.1715 10.8413C18.3652 11.1205 18.5863 11.567 18.821 12.2073C19.3365 13.6145 19.7697 15.5284 20.2292 17.5721L20.2444 17.639C20.6859 19.6021 21.1543 21.6849 21.7384 23.2791C22.0319 24.0802 22.392 24.8668 22.8629 25.4778C23.3251 26.0778 24.0944 26.7546 25.2194 26.7546C26.3503 26.7546 27.1168 26.0715 27.5735 25.4663C28.0374 24.8523 28.3861 24.063 28.6677 23.2631C29.2092 21.7267 29.6398 19.7332 30.0503 17.8367L30.0503 17.8367L30.1091 17.5614C30.5511 15.5201 30.9753 13.6138 31.4993 12.2169C31.6127 11.9131 31.7245 11.6541 31.8312 11.4364C32.6338 13.1844 33.079 15.1146 33.079 17.1436C33.079 25.0336 26.3475 31.4301 18.0432 31.4301C9.73901 31.4301 3.0072 25.0336 3.0072 17.1436C3.0072 15.0686 3.47278 13.0968 4.31018 11.3176ZM18.0432 0C8.07825 0 0 7.67542 0 17.1436C0 26.6117 8.07825 34.2871 18.0432 34.2871C28.0084 34.2871 36.0863 26.6117 36.0863 17.1436C36.0863 7.67542 28.0084 0 18.0432 0ZM18.387 10.6022C18.387 10.6025 18.3834 10.6051 18.3765 10.609C18.3834 10.6038 18.387 10.6018 18.387 10.6022ZM17.9713 10.604C17.9644 10.6 17.9609 10.5973 17.9609 10.5969C17.9609 10.5964 17.9644 10.5985 17.9713 10.604ZM24.9907 23.9546C24.9907 23.9546 24.9939 23.9515 25.0005 23.9475C24.9939 23.9528 24.9907 23.955 24.9907 23.9546ZM25.4279 23.9431C25.4349 23.9471 25.4386 23.9497 25.4386 23.9502C25.4386 23.9506 25.4349 23.9484 25.4279 23.9431ZM10.7638 23.9802C10.7638 23.9797 10.7681 23.9758 10.7767 23.9701C10.7682 23.9775 10.7638 23.9807 10.7638 23.9802ZM11.3728 23.9727C11.3815 23.9785 11.3857 23.9824 11.3857 23.9829C11.3856 23.9834 11.3813 23.9807 11.3728 23.9727Z" fill="#81818B" fill-opacity="1.000000" fill-rule="evenodd"/>
	<path id="Vector" d="M46.0492 27.293L41.6738 13.0724L45.5063 13.0724L48.1014 23.3077L51.1185 13.0724L55.4036 13.0724L58.4213 23.3077L61.0463 13.0724L64.8788 13.0724L60.473 27.293L56.46 27.293L53.2611 16.6562L50.0629 27.293L46.0492 27.293Z" fill="#81818B" fill-opacity="1.000000" fill-rule="nonzero"/>
	<path id="Vector" d="M70.5022 27.6372C69.2148 27.6372 68.1586 27.4457 67.3337 27.0634C66.5095 26.6621 65.8958 26.1366 65.4932 25.4867C65.0909 24.8368 64.8899 24.12 64.8899 23.3365C64.8899 22.0177 65.4327 20.9473 66.5189 20.1254C67.6052 19.3035 69.2354 18.8926 71.4077 18.8926L75.2098 18.8926L75.2098 18.5485C75.2098 17.5737 74.918 16.8569 74.3346 16.3982C73.7513 15.9395 73.0269 15.7101 72.1622 15.7101C71.3773 15.7101 70.6932 15.8917 70.11 16.2549C69.5267 16.5989 69.1644 17.115 69.0238 17.8031L65.2516 17.8031C65.3524 16.771 65.7147 15.8726 66.3379 15.108C66.9821 14.3435 67.8068 13.7605 68.8121 13.3591C69.8186 12.9386 70.9447 12.7284 72.1921 12.7284C74.3247 12.7284 76.0042 13.2349 77.2316 14.2479C78.4585 15.261 79.0723 16.6945 79.0723 18.5485L79.0723 27.2931L75.7826 27.2931L75.4209 24.9995C74.9783 25.764 74.3546 26.3945 73.5503 26.8918C72.7654 27.3885 71.7495 27.6372 70.5022 27.6372ZM71.3773 24.7699C72.484 24.7699 73.3387 24.4258 73.9419 23.7378C74.5657 23.0498 74.9584 22.1991 75.1195 21.1862L71.8298 21.1862C70.8041 21.1862 70.0701 21.3678 69.627 21.7308C69.1849 22.0747 68.9634 22.5052 68.9634 23.0211C68.9634 23.5754 69.1849 24.0055 69.627 24.3112C70.0701 24.6168 70.6528 24.7699 71.3773 24.7699Z" fill="#81818B" fill-opacity="1.000000" fill-rule="nonzero"/>
	<path id="Vector" d="M85.1522 27.293L79.6608 13.0724L83.7037 13.0724L87.5059 23.824L91.3079 13.0724L95.3514 13.0724L89.8295 27.293L85.1522 27.293Z" fill="#81818B" fill-opacity="1.000000" fill-rule="nonzero"/>
	<path id="Vector" d="M103.116 27.6372C101.607 27.6372 100.27 27.3311 99.1025 26.7196C97.9359 26.1078 97.0209 25.2478 96.3567 24.139C95.6926 23.0308 95.3613 21.75 95.3613 20.2974C95.3613 18.8257 95.6831 17.5164 96.3263 16.3695C96.9904 15.2228 97.8955 14.334 99.0426 13.7031C100.209 13.0533 101.577 12.7284 103.146 12.7284C104.615 12.7284 105.912 13.0342 107.039 13.6459C108.165 14.2574 109.041 15.0985 109.664 16.1688C110.308 17.2201 110.63 18.3955 110.63 19.6953C110.63 19.9055 110.619 20.1254 110.599 20.3547C110.599 20.5841 110.589 20.823 110.569 21.0715L99.1934 21.0715C99.2737 22.1801 99.6763 23.0498 100.4 23.6808C101.144 24.3112 102.04 24.6266 103.086 24.6266C103.87 24.6266 104.524 24.4642 105.047 24.139C105.59 23.7953 105.993 23.3556 106.254 22.8202L110.177 22.8202C109.895 23.7188 109.422 24.5408 108.759 25.2863C108.115 26.0122 107.31 26.5856 106.344 27.0063C105.399 27.4266 104.323 27.6372 103.116 27.6372ZM103.146 15.7101C102.201 15.7101 101.366 15.9681 100.641 16.4841C99.9172 16.9812 99.4547 17.7457 99.2532 18.7778L106.707 18.7778C106.646 17.8413 106.284 17.0958 105.62 16.5415C104.956 15.9873 104.132 15.7101 103.146 15.7101Z" fill="#81818B" fill-opacity="1.000000" fill-rule="nonzero"/>
	<path id="Vector" d="M112.671 27.293L112.671 6.65015L116.533 6.65015L116.533 27.293L112.671 27.293Z" fill="#81818B" fill-opacity="1.000000" fill-rule="nonzero"/>
	<path id="Vector" d="M126.545 27.6372C125.036 27.6372 123.699 27.3311 122.532 26.7196C121.365 26.1078 120.45 25.2478 119.786 24.139C119.122 23.0308 118.791 21.75 118.791 20.2974C118.791 18.8257 119.112 17.5164 119.755 16.3695C120.42 15.2228 121.325 14.334 122.472 13.7031C123.638 13.0533 125.006 12.7284 126.575 12.7284C128.044 12.7284 129.341 13.0342 130.468 13.6459C131.594 14.2574 132.47 15.0985 133.093 16.1688C133.737 17.2201 134.059 18.3955 134.059 19.6953C134.059 19.9055 134.049 20.1254 134.029 20.3547C134.029 20.5841 134.018 20.823 133.998 21.0715L122.622 21.0715C122.703 22.1801 123.105 23.0498 123.829 23.6808C124.573 24.3112 125.469 24.6266 126.515 24.6266C127.299 24.6266 127.953 24.4642 128.476 24.139C129.02 23.7953 129.422 23.3556 129.683 22.8202L133.607 22.8202C133.325 23.7188 132.852 24.5408 132.188 25.2863C131.544 26.0122 130.74 26.5856 129.774 27.0063C128.828 27.4266 127.752 27.6372 126.545 27.6372ZM126.575 15.7101C125.63 15.7101 124.795 15.9681 124.07 16.4841C123.346 16.9812 122.884 17.7457 122.682 18.7778L130.136 18.7778C130.075 17.8413 129.714 17.0958 129.05 16.5415C128.385 15.9873 127.561 15.7101 126.575 15.7101Z" fill="#81818B" fill-opacity="1.000000" fill-rule="nonzero"/>
	<path id="Vector" d="M142.286 27.6372C140.959 27.6372 139.792 27.4364 138.786 27.0352C137.78 26.6144 136.975 26.041 136.372 25.3146C135.769 24.5886 135.406 23.7476 135.286 22.7919L139.178 22.7919C139.299 23.3458 139.621 23.8241 140.144 24.2253C140.687 24.6075 141.381 24.7987 142.225 24.7987C143.071 24.7987 143.684 24.6364 144.066 24.3112C144.469 23.9865 144.67 23.6135 144.67 23.1931C144.67 22.5813 144.389 22.1703 143.825 21.9602C143.262 21.7308 142.477 21.5111 141.471 21.3009C140.828 21.167 140.174 21.0046 139.51 20.8135C138.846 20.6223 138.233 20.3834 137.67 20.0967C137.126 19.7909 136.684 19.4086 136.341 18.9498C136 18.472 135.829 17.889 135.829 17.2009C135.829 15.9395 136.352 14.8787 137.398 14.0186C138.464 13.1584 139.952 12.7284 141.864 12.7284C143.634 12.7284 145.042 13.1202 146.088 13.9039C147.154 14.6875 147.788 15.7675 147.99 17.1437L144.338 17.1437C144.117 16.0924 143.282 15.5668 141.834 15.5668C141.109 15.5668 140.546 15.7006 140.144 15.9681C139.762 16.2357 139.571 16.5702 139.571 16.9716C139.571 17.3921 139.862 17.7266 140.446 17.9751C141.029 18.2236 141.803 18.4529 142.769 18.6632C143.815 18.8926 144.77 19.1505 145.635 19.4373C146.521 19.7048 147.225 20.1158 147.748 20.6702C148.271 21.2052 148.532 21.9792 148.532 22.9923C148.553 23.8718 148.311 24.6647 147.808 25.3721C147.305 26.0791 146.581 26.6334 145.635 27.0352C144.69 27.4364 143.574 27.6372 142.286 27.6372Z" fill="#81818B" fill-opacity="1.000000" fill-rule="nonzero"/>
	<path id="Vector" d="M156.933 27.6372C155.605 27.6372 154.438 27.4364 153.433 27.0352C152.427 26.6144 151.622 26.041 151.019 25.3146C150.415 24.5886 150.053 23.7476 149.932 22.7919L153.825 22.7919C153.946 23.3458 154.267 23.8241 154.79 24.2253C155.334 24.6075 156.027 24.7987 156.872 24.7987C157.717 24.7987 158.331 24.6364 158.713 24.3112C159.115 23.9865 159.317 23.6135 159.317 23.1931C159.317 22.5813 159.035 22.1703 158.472 21.9602C157.909 21.7308 157.124 21.5111 156.118 21.3009C155.474 21.167 154.821 21.0046 154.157 20.8135C153.493 20.6223 152.879 20.3834 152.316 20.0967C151.773 19.7909 151.33 19.4086 150.988 18.9498C150.646 18.472 150.475 17.889 150.475 17.2009C150.475 15.9395 150.999 14.8787 152.045 14.0186C153.111 13.1584 154.599 12.7284 156.51 12.7284C158.281 12.7284 159.689 13.1202 160.735 13.9039C161.801 14.6875 162.434 15.7675 162.636 17.1437L158.984 17.1437C158.764 16.0924 157.929 15.5668 156.48 15.5668C155.756 15.5668 155.193 15.7006 154.79 15.9681C154.408 16.2357 154.217 16.5702 154.217 16.9716C154.217 17.3921 154.508 17.7266 155.092 17.9751C155.675 18.2236 156.45 18.4529 157.415 18.6632C158.462 18.8926 159.417 19.1505 160.282 19.4373C161.167 19.7048 161.871 20.1158 162.394 20.6702C162.917 21.2052 163.179 21.9792 163.179 22.9923C163.199 23.8718 162.958 24.6647 162.455 25.3721C161.952 26.0791 161.228 26.6334 160.282 27.0352C159.337 27.4364 158.22 27.6372 156.933 27.6372Z" fill="#81818B" fill-opacity="1.000000" fill-rule="nonzero"/>
</svg>
