<svg width="119.000000" height="18.000000" viewBox="0 0 119 18" fill="none" xmlns="http://www.w3.org/2000/svg" xmlns:xlink="http://www.w3.org/1999/xlink">
	<desc>
			Created with Pixso.
	</desc>
	<defs>
		<clipPath id="clip1_396">
			<rect id="63113d978ebd85eb94887924_star-rating-yellow.svg" width="19.625000" height="17.989584" transform="translate(0.000000 -0.916504)" fill="white" fill-opacity="0"/>
		</clipPath>
		<clipPath id="clip1_401">
			<rect id="63113d978ebd85eb94887924_star-rating-yellow.svg" width="19.625000" height="17.989584" transform="translate(24.625000 -0.916504)" fill="white" fill-opacity="0"/>
		</clipPath>
		<clipPath id="clip1_406">
			<rect id="63113d978ebd85eb94887924_star-rating-yellow.svg" width="19.625000" height="17.989584" transform="translate(49.250000 -0.916504)" fill="white" fill-opacity="0"/>
		</clipPath>
		<clipPath id="clip1_411">
			<rect id="63113d978ebd85eb94887924_star-rating-yellow.svg" width="19.625000" height="17.989584" transform="translate(73.875000 -0.916504)" fill="white" fill-opacity="0"/>
		</clipPath>
		<clipPath id="clip1_416">
			<rect id="63113d978ebd85eb94887924_star-rating-yellow.svg" width="19.625000" height="17.989584" transform="translate(98.500000 -0.916504)" fill="white" fill-opacity="0"/>
		</clipPath>
	</defs>
	<g clip-path="url(#clip1_396)">
		<path id="Star" d="M9.81 13.05L4.04 16.83L5.85 10.18L0.48 5.86L7.36 5.53L9.81 -0.92L12.25 5.53L19.14 5.86L13.76 10.18L15.58 16.83L9.81 13.05Z" fill="#FFC54F" fill-opacity="1.000000" fill-rule="evenodd"/>
	</g>
	<g clip-path="url(#clip1_401)">
		<path id="Star" d="M34.43 13.05L28.66 16.83L30.48 10.18L25.1 5.86L31.99 5.53L34.43 -0.92L36.88 5.53L43.76 5.86L38.39 10.18L40.2 16.83L34.43 13.05Z" fill="#FFC54F" fill-opacity="1.000000" fill-rule="evenodd"/>
	</g>
	<g clip-path="url(#clip1_406)">
		<path id="Star" d="M59.06 13.05L53.29 16.83L55.1 10.18L49.73 5.86L56.61 5.53L59.06 -0.92L61.5 5.53L68.39 5.86L63.01 10.18L64.83 16.83L59.06 13.05Z" fill="#FFC54F" fill-opacity="1.000000" fill-rule="evenodd"/>
	</g>
	<g clip-path="url(#clip1_411)">
		<path id="Star" d="M83.68 13.05L77.91 16.83L79.73 10.18L74.35 5.86L81.24 5.53L83.68 -0.92L86.13 5.53L93.01 5.86L87.64 10.18L89.45 16.83L83.68 13.05Z" fill="#FFC54F" fill-opacity="1.000000" fill-rule="evenodd"/>
	</g>
	<g clip-path="url(#clip1_416)">
		<path id="Star" d="M108.31 13.05L102.54 16.83L104.35 10.18L98.98 5.86L105.86 5.53L108.31 -0.92L110.75 5.53L117.64 5.86L112.26 10.18L114.08 16.83L108.31 13.05Z" fill="#FFC54F" fill-opacity="1.000000" fill-rule="evenodd"/>
	</g>
</svg>
