<svg width="36.000000" height="36.000000" viewBox="0 0 36 36" fill="none" xmlns="http://www.w3.org/2000/svg" xmlns:xlink="http://www.w3.org/1999/xlink">
	<desc>
			Created with Pixso.
	</desc>
	<defs>
		<clipPath id="clip9_137">
			<rect id="Frame" width="20.000000" height="20.000000" transform="translate(8.000000 8.000000)" fill="white" fill-opacity="0"/>
		</clipPath>
	</defs>
	<rect id="Frame" width="20.000000" height="20.000000" transform="translate(8.000000 8.000000)" fill="#FFFFFF" fill-opacity="0"/>
	<g clip-path="url(#clip9_137)">
		<path id="Vector" d="M14.2 11.75C14.2 12.14 14.04 12.52 13.76 12.81C13.48 13.09 13.1 13.24 12.7 13.24C12.3 13.24 11.92 13.09 11.64 12.8C11.36 12.52 11.2 12.14 11.2 11.74C11.2 11.35 11.36 10.96 11.64 10.68C11.92 10.4 12.3 10.24 12.7 10.24C13.1 10.24 13.48 10.4 13.76 10.68C14.04 10.97 14.2 11.35 14.2 11.75ZM14.25 14.35L11.25 14.35L11.25 23.75L14.25 23.75L14.25 14.35ZM18.99 14.35L16 14.35L16 23.75L18.95 23.75L18.95 18.82C18.95 16.07 22.53 15.82 22.53 18.82L22.53 23.75L25.5 23.75L25.5 17.8C25.5 13.17 20.2 13.34 18.95 15.61L18.99 14.35Z" fill="#75757F" fill-opacity="1.000000" fill-rule="nonzero"/>
	</g>
	<rect id="a#w-node-_0dfbe7a0-261a-0002-65c5-22e86775eb31-6775eb1b" rx="17.500000" width="35.000000" height="35.000000" transform="translate(0.500000 0.015625)" stroke="#81818B" stroke-opacity="0.900000" stroke-width="1.000000"/>
</svg>
