<svg width="36.000000" height="36.000000" viewBox="0 0 36 36" fill="none" xmlns="http://www.w3.org/2000/svg" xmlns:xlink="http://www.w3.org/1999/xlink">
	<desc>
			Created with Pixso.
	</desc>
	<defs>
		<clipPath id="clip9_134">
			<rect id="Frame" width="20.000000" height="20.000000" transform="translate(8.000000 8.000000)" fill="white" fill-opacity="0"/>
		</clipPath>
	</defs>
	<rect id="Frame" width="20.000000" height="20.000000" transform="translate(8.000000 8.000000)" fill="#FFFFFF" fill-opacity="0"/>
	<g clip-path="url(#clip9_134)">
		<path id="Vector" d="M23.35 13.9C23.98 13.49 24.4 12.93 24.6 12.22C23.99 12.57 23.38 12.8 22.77 12.93C22.23 12.31 21.53 12 20.71 12C19.89 12 19.21 12.3 18.65 12.88C18.09 13.47 17.81 14.19 17.81 15.02C17.81 15.28 17.84 15.5 17.9 15.7C15.51 15.61 13.53 14.56 11.97 12.54C11.71 13.04 11.57 13.54 11.57 14.06C11.57 15.13 12 15.98 12.85 16.6C12.37 16.55 11.94 16.42 11.57 16.21C11.57 16.97 11.79 17.61 12.21 18.17C12.64 18.73 13.19 19.08 13.86 19.23C13.61 19.3 13.36 19.33 13.1 19.33C12.85 19.33 12.68 19.31 12.58 19.26C12.76 19.89 13.1 20.39 13.58 20.78C14.07 21.16 14.63 21.37 15.26 21.39C14.22 22.25 13.04 22.67 11.7 22.67C11.37 22.67 11.14 22.67 11 22.64C12.31 23.55 13.78 24 15.41 24C17.07 24 18.54 23.55 19.82 22.66C21.1 21.77 22.05 20.68 22.65 19.39C23.26 18.11 23.56 16.77 23.56 15.37L23.56 14.99C24.15 14.52 24.63 13.99 25 13.41C24.47 13.65 23.92 13.81 23.35 13.9Z" fill="#75757F" fill-opacity="1.000000" fill-rule="nonzero"/>
	</g>
	<rect id="a#w-node-_0dfbe7a0-261a-0002-65c5-22e86775eb2b-6775eb1b" rx="17.500000" width="35.000000" height="35.000000" transform="translate(0.500000 0.015625)" stroke="#81818B" stroke-opacity="0.900000" stroke-width="1.000000"/>
</svg>
