<svg width="36.000000" height="36.000000" viewBox="0 0 36 36" fill="none" xmlns="http://www.w3.org/2000/svg" xmlns:xlink="http://www.w3.org/1999/xlink">
	<desc>
			Created with Pixso.
	</desc>
	<defs>
		<clipPath id="clip9_141">
			<rect id="Frame" width="20.000000" height="17.777779" transform="translate(8.000000 9.000000)" fill="white" fill-opacity="0"/>
		</clipPath>
	</defs>
	<rect id="Frame" width="20.000000" height="17.777779" transform="translate(8.000000 9.000000)" fill="#75757F" fill-opacity="0"/>
	<g clip-path="url(#clip9_141)">
		<path id="Vector" d="M25.66 13.87C25.48 13.13 24.93 12.55 24.25 12.35C23 12 18 12 18 12C18 12 12.99 12 11.74 12.35C11.06 12.55 10.51 13.13 10.33 13.87C10 15.21 10 18.01 10 18.01C10 18.01 10 20.8 10.33 22.14C10.51 22.88 11.06 23.44 11.74 23.64C12.99 24 18 24 18 24C18 24 23 24 24.25 23.64C24.93 23.44 25.48 22.88 25.66 22.14C26 20.8 26 18.01 26 18.01C26 18.01 26 15.21 25.66 13.87ZM16.36 20.54L16.36 15.47L20.54 18.01L16.36 20.54Z" fill="#75757F" fill-opacity="1.000000" fill-rule="nonzero"/>
	</g>
	<rect id="a#w-node-_0dfbe7a0-261a-0002-65c5-22e86775eb34-6775eb1b" rx="17.500000" width="35.000000" height="35.000000" transform="translate(0.500000 0.015625)" stroke="#81818B" stroke-opacity="0.900000" stroke-width="1.000000"/>
</svg>
